{
    "asset" : {
        "generator" : "Khronos glTF Blender I/O v1.0.5",
        "version" : "2.0"
    },
    "scene" : 0,
    "scenes" : [
        {
            "name" : "Scene",
            "nodes" : [
                0
            ]
        }
    ],
    "nodes" : [
        {
            "mesh" : 0,
            "name" : "Dark King",
            "scale" : [
                0.12063908576965332,
                0.12063908576965332,
                0.014764209277927876
            ],
            "translation" : [
                41.0284538269043,
                1.7383310794830322,
                35.42110061645508
            ]
        }
    ],
    "materials" : [
        {
            "doubleSided" : true,
            "name" : "Black Glass",
            "pbrMetallicRoughness" : {}
        }
    ],
    "meshes" : [
        {
            "name" : "Cube.002",
            "primitives" : [
                {
                    "attributes" : {
                        "POSITION" : 0,
                        "NORMAL" : 1
                    },
                    "indices" : 2,
                    "material" : 0
                }
            ]
        }
    ],
    "accessors" : [
        {
            "bufferView" : 0,
            "componentType" : 5126,
            "count" : 3637,
            "max" : [
                5.782939434051514,
                18.748281478881836,
                47.25278091430664
            ],
            "min" : [
                -5.782932758331299,
                -7.637819290161133,
                -47.25252914428711
            ],
            "type" : "VEC3"
        },
        {
            "bufferView" : 1,
            "componentType" : 5126,
            "count" : 3637,
            "type" : "VEC3"
        },
        {
            "bufferView" : 2,
            "componentType" : 5123,
            "count" : 21762,
            "type" : "SCALAR"
        }
    ],
    "bufferViews" : [
        {
            "buffer" : 0,
            "byteLength" : 43644,
            "byteOffset" : 0
        },
        {
            "buffer" : 0,
            "byteLength" : 43644,
            "byteOffset" : 43644
        },
        {
            "buffer" : 0,
            "byteLength" : 43524,
            "byteOffset" : 87288
        }
    ],
    "buffers" : [
        {
            "byteLength" : 130812,
            "uri" : "data:application/octet-stream;base64,"
        }
    ]
}
