{
    "asset" : {
        "generator" : "Khronos glTF Blender I/O v1.0.5",
        "version" : "2.0"
    },
    "scene" : 0,
    "scenes" : [
        {
            "extras" : {},
            "name" : "Scene",
            "nodes" : [
                0
            ]
        }
    ],
    "nodes" : [
        {
            "extras" : {},
            "mesh" : 0,
            "name" : "Dark Pawn 2",
            "scale" : [
                0.3822427988052368,
                0.3822427988052368,
                0.3822427988052368
            ],
            "translation" : [
                35.9139404296875,
                1.3227055072784424,
                37.1311149597168
            ]
        }
    ],
    "materials" : [
        {
            "doubleSided" : true,
            "name" : "Black Glass",
            "pbrMetallicRoughness" : {}
        }
    ],
    "meshes" : [
        {
            "name" : "Cylinder.025",
            "primitives" : [
                {
                    "attributes" : {
                        "POSITION" : 0,
                        "NORMAL" : 1
                    },
                    "indices" : 2,
                    "material" : 0
                }
            ]
        }
    ],
    "accessors" : [
        {
            "bufferView" : 0,
            "componentType" : 5126,
            "count" : 2018,
            "max" : [
                1.4998990297317505,
                3.213901996612549,
                1.5003559589385986
            ],
            "min" : [
                -1.5001009702682495,
                -1.3232271671295166,
                -1.4996440410614014
            ],
            "type" : "VEC3"
        },
        {
            "bufferView" : 1,
            "componentType" : 5126,
            "count" : 2018,
            "type" : "VEC3"
        },
        {
            "bufferView" : 2,
            "componentType" : 5123,
            "count" : 12084,
            "type" : "SCALAR"
        }
    ],
    "bufferViews" : [
        {
            "buffer" : 0,
            "byteLength" : 24216,
            "byteOffset" : 0
        },
        {
            "buffer" : 0,
            "byteLength" : 24216,
            "byteOffset" : 24216
        },
        {
            "buffer" : 0,
            "byteLength" : 24168,
            "byteOffset" : 48432
        }
    ],
    "buffers" : [
        {
            "byteLength" : 72600,
            "uri" : "data:application/octet-stream;base64,"
        }
    ]
}
