{
    "asset" : {
        "generator" : "Khronos glTF Blender I/O v1.0.5",
        "version" : "2.0"
    },
    "scene" : 0,
    "scenes" : [
        {
            "extras" : {},
            "name" : "Scene",
            "nodes" : [
                0
            ]
        }
    ],
    "nodes" : [
        {
            "extras" : {},
            "mesh" : 0,
            "name" : "Dark Rock 1",
            "scale" : [
                0.6195405721664429,
                0.6195405721664429,
                0.6195405721664429
            ],
            "translation" : [
                34.116790771484375,
                1.3234810829162598,
                35.350364685058594
            ]
        }
    ],
    "materials" : [
        {
            "doubleSided" : true,
            "name" : "Black Glass",
            "pbrMetallicRoughness" : {}
        }
    ],
    "meshes" : [
        {
            "name" : "Cylinder.009",
            "primitives" : [
                {
                    "attributes" : {
                        "POSITION" : 0,
                        "NORMAL" : 1
                    },
                    "indices" : 2,
                    "material" : 0
                }
            ]
        }
    ],
    "accessors" : [
        {
            "bufferView" : 0,
            "componentType" : 5126,
            "count" : 2848,
            "max" : [
                1.0292673110961914,
                2.259150505065918,
                1.0292673110961914
            ],
            "min" : [
                -1.0292673110961914,
                -1,
                -1.0292671918869019
            ],
            "type" : "VEC3"
        },
        {
            "bufferView" : 1,
            "componentType" : 5126,
            "count" : 2848,
            "type" : "VEC3"
        },
        {
            "bufferView" : 2,
            "componentType" : 5123,
            "count" : 17076,
            "type" : "SCALAR"
        }
    ],
    "bufferViews" : [
        {
            "buffer" : 0,
            "byteLength" : 34176,
            "byteOffset" : 0
        },
        {
            "buffer" : 0,
            "byteLength" : 34176,
            "byteOffset" : 34176
        },
        {
            "buffer" : 0,
            "byteLength" : 34152,
            "byteOffset" : 68352
        }
    ],
    "buffers" : [
        {
            "byteLength" : 102504,
            "uri" : "data:application/octet-stream;base64,"
        }
    ]
}
