{
  "asset": {
    "generator": "Khronos glTF Blender I/O v1.0.5",
    "version": "2.0"
  },
  "scene": 0,
  "scenes": [
    {
      "name": "Scene",
      "nodes": [0]
    }
  ],
  "nodes": [
    {
      "mesh": 0,
      "name": "Bishop",
      "scale": [0.05192941427230835, 0.05192941427230835, 0.05192941427230835],
      "translation": [37.653038024902344, 1.4841264486312866, 35.48297882080078]
    }
  ],
  "materials": [
    {
      "doubleSided": true,
      "name": "Black Glass",
      "pbrMetallicRoughness": {}
    }
  ],
  "meshes": [
    {
      "name": "Sphere",
      "primitives": [
        {
          "attributes": {
            "POSITION": 0,
            "NORMAL": 1
          },
          "indices": 2,
          "material": 0
        }
      ]
    }
  ],
  "accessors": [
    {
      "bufferView": 0,
      "componentType": 5126,
      "count": 3138,
      "max": [11.615938186645508, 31.273624420166016, 11.615952491760254],
      "min": [-11.615976333618164, -12.848498344421387, -11.615962028503418],
      "type": "VEC3"
    },
    {
      "bufferView": 1,
      "componentType": 5126,
      "count": 3138,
      "type": "VEC3"
    },
    {
      "bufferView": 2,
      "componentType": 5123,
      "count": 18669,
      "type": "SCALAR"
    }
  ],
  "bufferViews": [
    {
      "buffer": 0,
      "byteLength": 37656,
      "byteOffset": 0
    },
    {
      "buffer": 0,
      "byteLength": 37656,
      "byteOffset": 37656
    },
    {
      "buffer": 0,
      "byteLength": 37338,
      "byteOffset": 75312
    }
  ],
  "buffers": [
    {
      "byteLength": 112652,
      "uri": "data:application/octet-stream;base64,"
    }
  ]
}
