{
    "asset" : {
        "generator" : "Khronos glTF Blender I/O v1.0.5",
        "version" : "2.0"
    },
    "scene" : 0,
    "scenes" : [
        {
            "name" : "Scene",
            "nodes" : [
                0
            ]
        }
    ],
    "nodes" : [
        {
            "mesh" : 0,
            "name" : "Dark Knight 1",
            "rotation" : [
                0,
                0.7071068286895752,
                0,
                0.7071067690849304
            ],
            "scale" : [
                0.6016232371330261,
                0.25330400466918945,
                0.6016232371330261
            ],
            "translation" : [
                35.90807342529297,
                1.071574091911316,
                35.44256591796875
            ]
        }
    ],
    "materials" : [
        {
            "doubleSided" : true,
            "name" : "Black Glass",
            "pbrMetallicRoughness" : {}
        }
    ],
    "meshes" : [
        {
            "name" : "Cylinder.015",
            "primitives" : [
                {
                    "attributes" : {
                        "POSITION" : 0,
                        "NORMAL" : 1
                    },
                    "indices" : 2,
                    "material" : 0
                }
            ]
        }
    ],
    "accessors" : [
        {
            "bufferView" : 0,
            "componentType" : 5126,
            "count" : 1648,
            "max" : [
                1.03065025806427,
                7.3748674392700195,
                1.03065025806427
            ],
            "min" : [
                -1.03065025806427,
                -1.0053637027740479,
                -9.864886578725418e-07
            ],
            "type" : "VEC3"
        },
        {
            "bufferView" : 1,
            "componentType" : 5126,
            "count" : 1648,
            "type" : "VEC3"
        },
        {
            "bufferView" : 2,
            "componentType" : 5123,
            "count" : 9495,
            "type" : "SCALAR"
        }
    ],
    "bufferViews" : [
        {
            "buffer" : 0,
            "byteLength" : 19776,
            "byteOffset" : 0
        },
        {
            "buffer" : 0,
            "byteLength" : 19776,
            "byteOffset" : 19776
        },
        {
            "buffer" : 0,
            "byteLength" : 18990,
            "byteOffset" : 39552
        }
    ],
    "buffers" : [
        {
            "byteLength" : 58544,
            "uri" : "data:application/octet-stream;base64,"
        }
    ]
}
