{
    "asset" : {
        "generator" : "Khronos glTF Blender I/O v1.0.5",
        "version" : "2.0"
    },
    "scene" : 0,
    "scenes" : [
        {
            "extras" : {},
            "name" : "Scene",
            "nodes" : [
                0
            ]
        }
    ],
    "nodes" : [
        {
            "extras" : {},
            "mesh" : 0,
            "name" : "Dark Queen",
            "scale" : [
                0.010836396366357803,
                0.010836396366357803,
                0.010836396366357803
            ],
            "translation" : [
                39.33565902709961,
                1.6044120788574219,
                35.396575927734375
            ]
        }
    ],
    "materials" : [
        {
            "doubleSided" : true,
            "name" : "Black Glass",
            "pbrMetallicRoughness" : {}
        }
    ],
    "meshes" : [
        {
            "name" : "Sphere.005",
            "primitives" : [
                {
                    "attributes" : {
                        "POSITION" : 0,
                        "NORMAL" : 1
                    },
                    "indices" : 2,
                    "material" : 0
                }
            ]
        }
    ],
    "accessors" : [
        {
            "bufferView" : 0,
            "componentType" : 5126,
            "count" : 10694,
            "max" : [
                62.70307922363281,
                173.10272216796875,
                62.700653076171875
            ],
            "min" : [
                -62.699337005615234,
                -72.67182159423828,
                -62.7017822265625
            ],
            "type" : "VEC3"
        },
        {
            "bufferView" : 1,
            "componentType" : 5126,
            "count" : 10694,
            "type" : "VEC3"
        },
        {
            "bufferView" : 2,
            "componentType" : 5123,
            "count" : 64140,
            "type" : "SCALAR"
        }
    ],
    "bufferViews" : [
        {
            "buffer" : 0,
            "byteLength" : 128328,
            "byteOffset" : 0
        },
        {
            "buffer" : 0,
            "byteLength" : 128328,
            "byteOffset" : 128328
        },
        {
            "buffer" : 0,
            "byteLength" : 128280,
            "byteOffset" : 256656
        }
    ],
    "buffers" : [
        {
            "byteLength" : 384936,
            "uri" : "data:application/octet-stream;base64,"
        }
    ]
}
